<?xml version="1.0" encoding="UTF-8" ?>
<!DOCTYPE svg PUBLIC "-//W3C//DTD SVG 1.1//EN" "http://www.w3.org/Graphics/SVG/1.1/DTD/svg11.dtd">
<svg width="497pt" height="113pt" viewBox="0 0 1500 342" version="1.1" xmlns="http://www.w3.org/2000/svg">
<g id="#ffffffff">
</g>
<g id="#093479ff">
<path fill="#093479" opacity="1.00" d=" M 55.75 20.86 C 88.12 7.79 123.42 4.37 158.04 3.78 C 230.25 3.71 301.81 18.69 369.97 41.90 C 404.02 53.42 437.51 66.88 469.29 83.77 C 475.30 87.15 481.54 90.18 487.24 94.10 C 447.73 73.62 404.74 61.44 362.40 48.41 C 313.23 33.61 262.42 23.75 211.09 21.02 C 174.27 19.37 136.87 20.78 101.09 30.33 C 83.45 35.20 65.98 42.06 51.36 53.30 C 39.27 62.39 29.60 75.43 26.65 90.47 C 23.49 105.84 27.52 121.79 34.41 135.59 C 45.54 158.11 63.34 176.38 81.81 193.02 C 60.03 177.31 39.73 159.05 23.78 137.34 C 12.43 121.53 3.05 102.93 3.46 83.01 C 3.39 69.83 8.63 56.92 17.18 46.99 C 27.41 35.01 41.30 26.75 55.75 20.86 Z" />
<path fill="#093479" opacity="1.00" d=" M 229.55 236.78 C 249.30 235.45 269.71 236.95 288.15 244.62 C 299.91 249.54 310.87 257.58 317.06 268.95 C 323.80 281.11 323.54 297.02 315.75 308.65 C 308.44 320.06 296.31 327.37 283.84 331.95 C 263.00 339.38 240.30 340.20 218.54 337.17 C 201.79 334.49 184.60 328.91 172.29 316.72 C 162.65 307.37 158.25 293.06 161.04 279.92 C 163.08 268.75 170.45 259.18 179.54 252.67 C 194.06 242.32 212.01 238.10 229.55 236.78 M 228.46 249.65 C 220.14 251.26 211.86 254.63 205.80 260.71 C 200.12 266.28 196.96 274.06 196.37 281.93 C 195.72 290.88 196.96 300.37 201.98 308.00 C 206.52 314.97 213.89 319.60 221.64 322.24 C 235.04 326.63 249.97 326.59 263.15 321.45 C 270.55 318.55 277.42 313.54 281.25 306.44 C 286.13 297.52 286.71 286.79 284.85 276.96 C 282.95 267.53 276.47 259.43 268.07 254.89 C 256.09 248.35 241.73 247.25 228.46 249.65 Z" />
<path fill="#093479" opacity="1.00" d=" M 77.16 237.11 C 92.51 235.81 108.13 236.39 123.19 239.76 C 131.60 241.82 140.15 244.56 147.04 249.99 C 149.34 251.93 151.64 254.73 150.95 257.96 C 150.23 261.00 147.21 262.69 144.47 263.64 C 138.94 265.43 132.85 265.47 127.30 263.76 C 122.92 262.18 119.83 258.50 116.05 255.95 C 105.52 248.21 91.60 246.94 79.02 248.92 C 67.99 250.66 56.79 256.11 50.92 265.99 C 42.56 280.12 46.62 299.55 58.73 310.26 C 69.91 320.23 85.28 324.20 99.98 324.29 C 111.32 324.50 122.65 322.29 133.12 317.97 C 137.53 316.05 142.97 315.17 147.28 317.78 C 149.21 318.81 149.61 321.65 148.25 323.32 C 145.87 326.71 142.05 328.70 138.43 330.50 C 126.56 335.92 113.43 337.92 100.49 338.64 C 80.74 339.36 60.39 337.78 42.05 329.88 C 29.99 324.66 18.78 315.94 13.35 303.69 C 8.44 292.82 8.56 279.68 14.29 269.14 C 20.09 258.29 30.44 250.59 41.51 245.69 C 52.78 240.76 64.94 238.15 77.16 237.11 Z" />
<path fill="#093479" opacity="1.00" d=" M 567.56 237.83 C 583.47 235.83 599.71 235.95 615.51 238.78 C 624.65 240.58 633.91 243.09 641.78 248.26 C 644.78 250.30 647.98 253.10 648.21 256.98 C 647.86 261.06 643.65 263.07 640.19 264.07 C 632.99 265.79 624.43 265.54 618.66 260.31 C 613.12 255.49 606.76 251.40 599.56 249.65 C 589.72 247.28 579.26 247.64 569.54 250.38 C 560.92 252.98 552.59 258.06 547.95 265.99 C 542.43 275.16 542.44 286.88 546.27 296.68 C 550.20 306.66 558.85 314.12 568.46 318.45 C 586.89 326.41 608.39 326.02 627.09 319.14 C 632.40 316.87 638.87 314.52 644.30 317.76 C 646.87 319.11 646.38 322.73 644.46 324.45 C 640.29 328.66 634.71 331.06 629.22 333.04 C 618.24 336.83 606.59 338.34 595.02 338.74 C 575.36 339.18 555.05 337.34 537.03 328.89 C 525.56 323.56 515.07 314.84 510.11 302.95 C 505.13 291.36 505.97 277.35 512.76 266.66 C 519.36 256.20 530.10 249.03 541.41 244.49 C 549.78 241.13 558.64 239.07 567.56 237.83 Z" />
<path fill="#093479" opacity="1.00" d=" M 677.36 239.37 C 679.08 238.49 681.10 238.60 682.99 238.50 C 712.00 238.48 741.02 238.52 770.04 238.48 C 772.06 238.71 774.84 237.98 776.10 240.06 C 776.38 243.30 776.40 246.59 776.07 249.84 C 774.98 251.48 772.69 251.13 771.01 251.29 C 750.85 251.18 730.70 251.35 710.55 251.20 C 710.44 260.63 710.54 270.06 710.50 279.49 C 727.67 279.51 744.85 279.49 762.03 279.49 C 763.38 279.65 765.48 279.38 766.10 280.96 C 766.41 284.02 766.39 287.12 766.12 290.19 C 765.51 292.38 762.76 291.73 761.05 292.02 C 744.20 292.01 727.35 292.00 710.51 292.02 C 710.52 302.61 710.48 313.19 710.53 323.78 C 727.67 323.69 744.81 323.76 761.95 323.74 C 766.55 324.26 771.98 322.46 776.03 325.09 C 776.39 328.37 776.42 331.72 776.09 335.02 C 775.92 336.51 773.94 336.23 772.87 336.48 C 741.92 336.52 710.96 336.50 680.01 336.49 C 678.40 336.54 675.96 336.14 676.04 334.05 C 675.92 304.03 676.06 273.99 675.97 243.96 C 676.16 242.40 675.56 240.17 677.36 239.37 Z" />
<path fill="#093479" opacity="1.00" d=" M 966.70 239.77 C 968.39 238.99 970.20 238.43 972.09 238.49 C 1007.40 238.50 1042.71 238.50 1078.02 238.49 C 1081.77 238.56 1085.73 237.98 1089.24 239.72 C 1089.23 243.40 1089.52 247.13 1088.67 250.75 C 1083.83 251.56 1078.91 251.20 1074.04 251.25 C 1064.44 251.27 1054.85 251.23 1045.25 251.28 C 1045.25 278.20 1045.28 305.12 1045.25 332.03 C 1045.21 333.73 1044.85 336.38 1042.64 336.37 C 1033.43 336.69 1024.20 336.41 1014.98 336.50 C 1013.28 336.46 1010.31 336.23 1010.56 333.90 C 1010.44 306.37 1010.50 278.83 1010.53 251.30 C 999.69 251.21 988.86 251.28 978.03 251.26 C 974.26 251.17 970.33 251.75 966.78 250.21 C 966.75 246.73 966.76 243.25 966.70 239.77 Z" />
<path fill="#093479" opacity="1.00" d=" M 1115.17 239.63 C 1129.01 237.78 1143.02 237.91 1156.95 237.48 C 1169.33 237.79 1181.82 237.80 1194.03 240.17 C 1202.78 241.83 1211.76 244.43 1218.64 250.36 C 1223.69 254.62 1226.94 261.43 1225.66 268.10 C 1224.62 273.61 1220.41 277.83 1215.98 280.94 C 1207.23 286.76 1196.83 289.35 1186.66 291.41 C 1201.96 304.40 1217.13 317.54 1232.39 330.59 C 1233.68 331.85 1235.64 332.83 1235.88 334.83 C 1235.36 336.42 1233.40 336.43 1232.05 336.49 C 1222.36 336.52 1212.68 336.49 1202.99 336.50 C 1200.73 336.61 1198.50 335.86 1196.93 334.21 C 1184.12 322.31 1171.37 310.35 1158.57 298.44 C 1155.45 295.41 1150.66 293.95 1146.46 295.33 C 1145.03 295.61 1144.39 296.51 1144.55 298.01 C 1144.33 309.79 1144.71 321.59 1144.39 333.36 C 1144.60 335.45 1142.77 336.59 1140.89 336.46 C 1132.25 336.55 1123.60 336.46 1114.96 336.51 C 1113.41 336.66 1112.05 335.90 1110.73 335.26 C 1110.78 304.80 1110.71 274.35 1110.76 243.90 C 1110.25 241.19 1112.88 239.79 1115.17 239.63 M 1144.47 249.09 C 1144.53 261.39 1144.50 273.69 1144.49 285.99 C 1157.71 286.07 1171.97 286.71 1183.79 279.76 C 1189.55 276.56 1193.00 269.44 1190.93 263.01 C 1189.44 256.75 1183.50 252.85 1177.68 251.11 C 1166.93 247.91 1155.53 248.62 1144.47 249.09 Z" />
<path fill="#093479" opacity="1.00" d=" M 343.49 242.93 C 343.38 241.20 343.69 238.86 345.97 238.91 C 354.28 238.55 362.63 238.79 370.95 238.79 C 373.75 238.66 375.91 240.58 378.00 242.16 C 404.38 262.42 430.85 282.56 457.20 302.86 C 457.38 281.97 457.08 261.07 457.35 240.19 C 459.02 237.79 462.53 239.07 465.01 238.73 C 471.16 239.23 477.60 237.71 483.53 239.70 C 483.43 271.12 483.52 302.55 483.49 333.98 C 483.89 335.98 481.54 336.57 480.04 336.48 C 474.33 336.51 468.62 336.55 462.92 336.46 C 460.95 336.46 459.28 335.28 457.77 334.17 C 428.71 311.73 399.60 289.33 370.51 266.92 C 370.43 289.05 370.64 311.19 370.41 333.32 C 370.71 335.52 369.00 336.64 367.00 336.47 C 359.30 336.39 351.57 336.84 343.90 336.15 C 343.30 332.47 343.50 328.73 343.50 325.02 C 343.49 297.66 343.51 270.29 343.49 242.93 Z" />
<path fill="#093479" opacity="1.00" d=" M 805.46 239.50 C 811.45 237.90 817.81 239.13 823.96 238.75 C 828.40 239.07 833.56 237.60 837.34 240.67 C 864.38 261.40 891.46 282.07 918.47 302.83 C 918.59 282.25 918.39 261.66 918.56 241.07 C 918.38 238.80 921.33 238.79 922.94 238.75 C 929.28 238.78 935.64 238.67 941.99 238.80 C 943.87 238.44 945.05 240.26 944.75 241.96 C 944.76 272.30 944.74 302.64 944.76 332.99 C 944.70 334.19 944.76 336.39 942.99 336.29 C 937.34 336.80 931.65 336.35 925.99 336.52 C 923.62 336.69 921.31 336.00 919.50 334.49 C 890.27 311.96 861.04 289.44 831.82 266.90 C 831.63 288.95 831.79 311.01 831.74 333.06 C 831.82 334.45 831.28 336.37 829.57 336.36 C 822.72 336.69 815.85 336.40 809.00 336.51 C 807.31 336.59 804.65 336.39 804.83 334.07 C 804.61 304.39 804.84 274.69 804.72 245.00 C 804.78 243.16 804.59 241.19 805.46 239.50 Z" />
<path fill="#093479" opacity="1.00" d=" M 1256.80 239.68 C 1260.38 238.30 1264.24 238.80 1267.99 238.75 C 1274.31 238.77 1280.65 238.73 1286.98 238.74 C 1288.57 238.61 1290.03 239.27 1291.50 239.85 C 1291.45 271.23 1291.54 302.61 1291.46 333.98 C 1291.68 335.83 1289.50 336.46 1288.08 336.47 C 1279.36 336.55 1270.64 336.46 1261.93 336.51 C 1260.08 336.65 1258.36 336.02 1256.74 335.26 C 1256.80 303.40 1256.67 271.54 1256.80 239.68 Z" />
<path fill="#093479" opacity="1.00" d=" M 1322.38 238.79 C 1331.22 238.71 1340.07 238.75 1348.91 238.76 C 1351.93 238.49 1354.42 240.35 1356.44 242.38 C 1365.25 250.97 1374.08 259.56 1382.97 268.08 C 1391.53 260.26 1399.89 252.23 1408.32 244.28 C 1410.90 242.09 1413.20 238.71 1416.97 238.78 C 1423.31 238.67 1429.65 238.81 1436.00 238.73 C 1437.94 238.81 1440.16 238.45 1441.74 239.93 C 1441.55 241.45 1440.57 242.62 1439.53 243.64 C 1425.58 256.82 1411.52 269.89 1397.60 283.10 C 1404.18 288.89 1410.08 295.40 1416.37 301.51 C 1425.68 310.23 1434.40 319.55 1443.69 328.30 C 1445.54 330.44 1448.34 332.16 1449.11 334.99 C 1447.85 337.19 1445.08 336.30 1443.03 336.53 C 1433.66 336.24 1424.23 336.95 1414.91 336.17 C 1411.23 334.38 1408.71 330.94 1405.67 328.31 C 1396.27 319.25 1386.79 310.29 1377.37 301.26 C 1368.87 309.46 1360.08 317.36 1351.44 325.42 C 1347.22 328.93 1343.74 333.43 1339.03 336.26 C 1332.70 336.83 1326.31 336.34 1319.96 336.51 C 1318.28 336.72 1316.86 335.87 1315.47 335.13 C 1331.26 318.79 1347.38 302.77 1363.17 286.43 C 1350.27 271.86 1337.16 257.47 1324.12 243.02 C 1322.89 241.94 1322.77 240.26 1322.38 238.79 Z" />
</g>
<g id="#c1d72dff">
<path fill="#c1d72d" opacity="1.00" d=" M 151.84 39.72 C 187.99 37.85 224.20 41.01 259.92 46.47 C 300.25 52.68 340.14 61.91 379.03 74.28 C 421.37 87.59 462.27 106.04 499.21 130.75 C 530.85 152.26 560.26 178.19 581.13 210.55 C 572.45 210.19 563.80 210.88 555.14 211.27 C 535.32 180.38 507.55 155.41 477.55 134.65 C 436.30 106.22 389.74 86.10 341.73 72.20 C 283.31 54.77 222.94 43.18 161.95 40.49 C 158.57 40.38 155.18 40.25 151.84 39.72 Z" />
</g>
<g id="#00929fff">
<path fill="#00929f" opacity="1.00" d=" M 112.44 77.54 C 132.67 66.89 155.53 62.18 178.17 60.45 C 157.40 64.33 136.06 70.58 119.89 84.83 C 109.66 93.70 102.32 106.40 101.82 120.13 C 101.06 137.77 109.46 154.31 119.84 168.04 C 137.95 191.70 162.51 209.42 187.95 224.44 C 187.91 224.67 187.84 225.11 187.80 225.33 C 182.86 227.69 177.79 229.79 172.87 232.19 C 149.89 219.87 128.12 204.91 109.59 186.48 C 96.18 172.58 83.97 156.31 79.88 137.06 C 77.13 124.32 79.07 110.36 86.55 99.51 C 93.00 90.01 102.39 82.89 112.44 77.54 Z" />
</g>
<g id="#f15c22ff">
<path fill="#f15c22" opacity="1.00" d=" M 222.92 105.89 C 241.04 102.32 259.70 102.81 277.97 104.91 C 299.86 107.59 321.39 112.74 342.40 119.36 C 375.18 129.93 407.46 143.92 434.74 165.28 C 436.37 166.53 437.89 167.93 439.36 169.38 C 414.04 151.45 385.58 138.32 356.05 129.03 C 336.54 122.84 316.49 118.31 296.17 115.77 C 276.25 113.28 255.94 112.74 236.08 116.05 C 223.32 118.44 210.07 122.32 200.41 131.45 C 193.20 138.12 190.04 148.75 192.65 158.26 C 196.38 172.88 207.28 184.15 217.97 194.18 C 211.56 190.03 205.90 184.84 200.44 179.53 C 191.87 170.72 183.82 160.41 181.54 148.03 C 179.48 137.86 183.96 127.25 191.45 120.38 C 200.10 112.37 211.57 108.29 222.92 105.89 Z" />
</g>
<g id="#ffd203ff">
<path fill="#ffd203" opacity="1.00" d=" M 325.34 153.01 C 336.25 154.42 346.42 159.07 356.31 163.69 C 364.45 168.45 372.60 174.34 377.07 182.89 C 380.40 188.96 380.35 197.25 375.69 202.63 C 371.62 207.57 365.19 209.65 359.11 210.73 C 342.95 212.97 326.59 210.35 310.89 206.46 C 288.56 200.49 265.89 192.02 248.75 175.97 C 254.47 179.83 260.36 183.52 266.71 186.27 C 291.10 197.24 318.16 204.14 345.02 200.92 C 351.55 199.84 358.73 198.55 363.63 193.69 C 366.78 189.67 367.81 183.91 365.95 179.10 C 364.36 174.48 360.67 171.04 357.00 168.01 C 347.64 160.82 336.40 156.76 325.34 153.01 Z" />
</g>
<g id="#09337bff">
<path fill="#09337b" opacity="1.00" d=" M 1449.27 212.47 C 1455.83 212.52 1462.39 212.51 1468.96 212.48 C 1468.99 213.24 1469.05 214.75 1469.09 215.51 C 1466.38 215.50 1463.69 215.50 1461.02 215.50 C 1461.01 223.32 1460.98 231.15 1461.04 238.97 C 1459.76 238.99 1458.49 239.01 1457.24 239.04 C 1457.26 231.19 1457.23 223.35 1457.25 215.50 C 1454.57 215.50 1451.91 215.50 1449.26 215.52 C 1449.24 214.50 1449.25 213.48 1449.27 212.47 Z" />
</g>
<g id="#09347bff">
<path fill="#09347b" opacity="1.00" d=" M 1491.81 212.50 C 1493.33 212.49 1494.87 212.49 1496.43 212.48 C 1496.97 221.30 1497.47 230.13 1498.10 238.95 C 1497.22 238.98 1495.44 239.04 1494.55 239.07 C 1494.04 231.59 1493.52 224.11 1493.45 216.61 C 1491.16 224.12 1488.27 231.42 1485.64 238.81 C 1484.65 238.75 1483.67 238.70 1482.72 238.65 C 1480.47 231.42 1477.65 224.37 1475.78 217.02 C 1475.33 224.35 1475.06 231.69 1474.46 239.00 C 1473.27 239.02 1472.10 239.04 1470.94 239.07 C 1471.63 230.22 1472.26 221.37 1472.80 212.51 C 1474.32 212.50 1475.85 212.48 1477.40 212.47 C 1479.89 219.49 1482.61 226.45 1484.50 233.68 C 1486.38 226.44 1489.37 219.56 1491.81 212.50 Z" />
</g>
</svg>
