<?xml version="1.0" encoding="UTF-8" standalone="no"?>
<!-- Created with Inkscape (http://www.inkscape.org/) -->

<svg
   xmlns:dc="http://purl.org/dc/elements/1.1/"
   xmlns:cc="http://creativecommons.org/ns#"
   xmlns:rdf="http://www.w3.org/1999/02/22-rdf-syntax-ns#"
   xmlns:svg="http://www.w3.org/2000/svg"
   xmlns="http://www.w3.org/2000/svg"
   xmlns:sodipodi="http://sodipodi.sourceforge.net/DTD/sodipodi-0.dtd"
   xmlns:inkscape="http://www.inkscape.org/namespaces/inkscape"
   width="621.2251"
   height="205.39995"
   viewBox="0 0 164.3658 54.345404"
   version="1.1"
   id="svg8"
   inkscape:version="0.92.3 (2405546, 2018-03-11)"
   sodipodi:docname="sc.svg">
  <defs
     id="defs2">
	
	
	
	
	
	
	
	
	
	
	
	
	
	
	
	
	
	
	
	
	
	
	
	
	
	
	
	
	
	
	
	
	
	
	
	
	
	
	
	
	
	
	
	
	
	
	
	
	
	
	
	
	
	
	
	
	
	
	
	
	
	
</defs>
  <sodipodi:namedview
     id="base"
     pagecolor="#00ffff"
     bordercolor="#666666"
     borderopacity="1.0"
     inkscape:pageopacity="0"
     inkscape:pageshadow="2"
     inkscape:zoom="0.98994949"
     inkscape:cx="182.00957"
     inkscape:cy="155.91469"
     inkscape:document-units="px"
     inkscape:current-layer="layer1"
     showgrid="false"
     units="px"
     fit-margin-left="0.5"
     fit-margin-top="0.5"
     fit-margin-right="0.5"
     fit-margin-bottom="0.5"
     inkscape:window-width="1920"
     inkscape:window-height="1001"
     inkscape:window-x="-9"
     inkscape:window-y="-9"
     inkscape:window-maximized="1" />
  <metadata
     id="metadata5">
    <rdf:RDF>
      <cc:Work
         rdf:about="">
        <dc:format>image/svg+xml</dc:format>
        <dc:type
           rdf:resource="http://purl.org/dc/dcmitype/StillImage" />
        <dc:title></dc:title>
      </cc:Work>
    </rdf:RDF>
  </metadata>
  <g
     inkscape:label="Layer 1"
     inkscape:groupmode="layer"
     id="layer1"
     transform="translate(-23.627288,-121.71353)">
    <path
       class="st1"
       d="m 23.759585,157.74978 c 0.79375,0 1.613958,0.0265 2.407708,0.0265 1.455209,0 2.910417,0 4.339167,0 1.217083,0 2.2225,0.47625 2.725208,1.61396 0.449792,1.00542 0.767292,2.09021 1.084792,3.14854 0.449792,1.64042 0.978958,3.22792 2.116667,4.52438 1.243541,1.42875 2.804583,2.46062 4.497916,3.30729 2.460625,1.24354 5.08,1.98437 7.805208,2.32833 3.307292,0.39688 6.561667,0.18521 9.736667,-0.92604 3.81,-1.34938 6.82625,-3.67771 8.73125,-7.3025 0.767291,-1.48167 1.137708,-3.06917 1.137708,-4.7625 -0.02646,-12.43542 0,-24.87083 0,-37.33271 0,-0.15875 0,-0.3175 0,-0.52917 2.778125,0 5.529792,0 8.334375,0 0,0.15875 0,0.34396 0,0.50271 0,12.40896 0.02646,24.81792 -0.02646,37.25334 -0.02646,4.68312 -2.06375,8.4402 -5.900209,11.16541 -2.566458,1.82563 -5.423958,2.93688 -8.466666,3.70417 -1.957917,0.50271 -3.942292,0.79375 -5.953125,1.00542 -2.910417,0.29104 -5.847292,0.29104 -8.757708,0.10583 -4.206875,-0.23813 -8.360834,-0.84667 -12.329583,-2.27542 -2.619375,-0.92604 -5.027084,-2.16958 -7.14375,-3.99521 -2.196042,-1.95791 -3.730625,-4.33916 -4.233334,-7.32895 -0.02646,-0.0794 -0.07937,-0.15875 -0.105833,-0.23813 0,-1.32292 0,-2.67229 0,-3.99521 z"
       id="path4490"
       inkscape:connector-curvature="0"
       style="fill:#df2626;stroke-width:0.26458332" />
    <path
       class="st1"
       d="m 23.759585,145.76416 c 1.772708,0.0265 3.545417,-0.0265 5.318125,0.0794 1.296458,0.0794 2.010833,1.03188 2.06375,2.35479 0.02646,0.60855 0.07938,1.21709 0.211667,1.82563 0.211666,0.9525 0.79375,1.37583 1.799166,1.37583 1.11125,0.0265 1.772709,-0.37041 2.06375,-1.29646 0.105834,-0.34395 0.185209,-0.68791 0.185209,-1.03187 0.02646,-0.9525 0.05292,-1.87854 0,-2.83104 -0.07937,-1.16417 -0.79375,-1.77271 -1.984375,-1.77271 -1.5875,0 -3.201459,-0.0529 -4.7625,-0.37042 -2.143125,-0.42333 -3.704167,-1.61396 -4.497917,-3.67771 -0.15875,-0.39687 -0.211667,-0.8202 -0.211667,-1.24354 -0.02646,-1.13771 0.02646,-2.30187 -0.02646,-3.43958 -0.07937,-2.06375 0.926042,-3.4925 2.619375,-4.49792 1.190625,-0.71437 2.513542,-1.00541 3.889375,-1.16416 1.640417,-0.21167 3.280833,-0.21167 4.894792,-0.0529 1.719791,0.15875 3.386666,0.52917 4.841874,1.56104 1.561042,1.11125 2.434167,2.61938 2.69875,4.49792 0.105834,0.79375 0.15875,1.5875 0.211667,2.43416 -0.132292,0.0265 -0.238125,0.0529 -0.3175,0.0529 -1.508125,0 -3.01625,0 -4.497917,-0.0529 -1.11125,-0.0529 -2.090208,-0.42333 -2.513541,-1.53458 -0.15875,-0.42333 -0.15875,-0.92604 -0.238125,-1.40229 -0.02646,-0.21167 -0.02646,-0.39688 -0.05292,-0.60854 -0.132291,-0.97896 -0.396875,-1.27 -1.375833,-1.42875 -0.396875,-0.0529 -0.79375,-0.0794 -1.190625,-0.0265 -0.79375,0.10583 -1.296458,0.58208 -1.481667,1.32292 -0.105833,0.37041 -0.132291,0.74083 -0.15875,1.1377 -0.02646,0.74084 0.02646,1.48167 0,2.2225 -0.05292,1.32292 0.767292,2.30188 2.328334,2.3548 1.534583,0.0794 3.069166,0.15875 4.603749,0.34395 1.402292,0.15875 2.619375,0.82021 3.545417,1.93146 0.714375,0.84667 1.031875,1.85209 1.058333,2.93688 0.02646,1.16416 0,2.35479 0,3.51896 0.02646,1.95791 -0.899583,3.41312 -2.487083,4.47145 -1.27,0.84667 -2.725208,1.19063 -4.233333,1.29646 -1.322917,0.0794 -2.672292,0.10584 -3.995208,0.0529 -1.455209,-0.0529 -2.910417,-0.34396 -4.233334,-0.97896 -2.354791,-1.13771 -3.704166,-2.98979 -3.96875,-5.60917 0,-0.10583 -0.07937,-0.1852 -0.105833,-0.29104 0,-0.82021 0,-1.64041 0,-2.46062 z"
       id="path4492"
       inkscape:connector-curvature="0"
       style="fill:#df2626;stroke-width:0.26458332" />
    <path
       class="st2"
       d="m 133.53521,175.87374 c -0.29104,-0.18521 -0.55563,-0.39687 -0.87313,-0.60854 -0.0265,0.15875 -0.0265,0.3175 -0.0529,0.47625 -0.39688,0 -0.79375,0 -1.19063,0 0,-2.06375 0,-4.1275 0,-6.19125 0.42334,0 0.82021,0 1.24354,0 0,0.79375 0,1.56104 0,2.35479 0.34396,-0.18521 0.66146,-0.44979 1.00542,-0.52917 1.19063,-0.26458 2.09021,0.39688 2.2225,1.5875 0.0529,0.50271 0.0265,1.03188 -0.10583,1.53459 -0.15875,0.76729 -0.74084,1.16416 -1.45521,1.37583 -0.26458,0 -0.52917,0 -0.79375,0 z m 1.16417,-2.27542 c -0.0529,-0.29104 -0.0794,-0.52916 -0.15875,-0.79375 -0.10584,-0.39687 -0.34396,-0.68791 -0.79375,-0.68791 -0.4498,-0.0265 -0.79375,0.18521 -0.9525,0.635 -0.21167,0.55562 -0.21167,1.13771 0,1.69333 0.13229,0.34396 0.37041,0.58208 0.79375,0.60854 0.42333,0.0265 0.74083,-0.18521 0.89958,-0.55562 0.10583,-0.3175 0.15875,-0.635 0.21167,-0.89959 z"
       id="path4494"
       inkscape:connector-curvature="0"
       style="fill:#010101;stroke-width:0.26458332" />
    <path
       class="st2"
       d="m 178.48792,175.87374 c -0.23813,-0.15875 -0.52917,-0.26458 -0.74084,-0.47625 -0.92604,-0.82021 -0.89958,-2.8575 0.0265,-3.67771 0.71438,-0.60854 1.66688,-0.55562 2.56646,0.13229 0,-0.79375 0,-1.53458 0,-2.32833 0.44979,0 0.84667,0 1.27,0 0,2.06375 0,4.10104 0,6.19125 -0.39688,0 -0.79375,0 -1.21708,0 -0.0265,-0.15875 -0.0265,-0.3175 -0.0529,-0.42333 -0.34396,0.18521 -0.68792,0.37041 -1.03188,0.55562 -0.29104,0.0265 -0.55562,0.0265 -0.8202,0.0265 z m 1.93145,-2.27542 c -0.0794,-0.3175 -0.13229,-0.66145 -0.29104,-0.97895 -0.18521,-0.37042 -0.50271,-0.55563 -0.9525,-0.50271 -0.39687,0.0529 -0.60854,0.29104 -0.71437,0.635 -0.18521,0.55562 -0.18521,1.11125 0.0265,1.66687 0.13229,0.37042 0.39687,0.60854 0.8202,0.635 0.4498,0.0265 0.74084,-0.21166 0.89959,-0.58208 0.0794,-0.26458 0.13229,-0.55563 0.21166,-0.87313 z"
       id="path4496"
       inkscape:connector-curvature="0"
       style="fill:#010101;stroke-width:0.26458332" />
    <path
       class="st2"
       d="m 125.06854,175.87374 c -0.0529,-0.0529 -0.10583,-0.10583 -0.18521,-0.13229 -0.55562,-0.21167 -0.79375,-0.635 -0.79375,-1.21708 0,-0.58209 0.29105,-1.03188 0.82021,-1.19063 0.55563,-0.15875 1.13771,-0.21167 1.71979,-0.29104 0.10584,-0.0265 0.21167,-0.0265 0.3175,-0.0265 0.0794,-0.66146 -0.0794,-0.97896 -0.5027,-1.03187 -0.42334,-0.0794 -0.66146,0.10583 -0.79375,0.66145 -0.39688,0 -0.79375,0 -1.24355,0 -0.0529,-0.42333 0.1323,-0.76729 0.47625,-0.97895 0.84667,-0.50271 1.74625,-0.50271 2.61938,-0.15875 0.44979,0.1852 0.635,0.60854 0.66146,1.05833 0.0265,1.05833 0,2.09021 0,3.20146 -0.29104,0 -0.635,0.0529 -0.9525,-0.0265 -0.13229,-0.0265 -0.21167,-0.26458 -0.29104,-0.39688 -0.3175,0.15875 -0.66146,0.34396 -1.00542,0.52917 -0.23813,0 -0.52917,0 -0.84667,0 z m 1.95792,-2.16958 c -0.52917,-0.10584 -1.08479,-0.0265 -1.37583,0.18521 -0.23813,0.15875 -0.34396,0.39687 -0.26459,0.66145 0.0529,0.18521 0.21167,0.39688 0.37042,0.47625 0.42333,0.21167 0.9525,0 1.11125,-0.47625 0.10583,-0.23812 0.10583,-0.55562 0.15875,-0.84666 z"
       id="path4498"
       inkscape:connector-curvature="0"
       style="fill:#010101;stroke-width:0.26458332" />
    <path
       class="st2"
       d="m 77.496459,175.87374 c -0.07937,-0.0529 -0.132291,-0.13229 -0.211666,-0.15875 -0.502709,-0.23812 -0.714375,-0.635 -0.740834,-1.16417 -0.02646,-0.55562 0.238125,-1.00541 0.740834,-1.16416 0.582083,-0.18521 1.190625,-0.23813 1.799166,-0.34396 0.105834,-0.0265 0.238125,-0.0265 0.343959,-0.0265 0.07937,-0.60854 -0.07937,-0.92604 -0.449792,-1.03187 -0.449792,-0.1323 -0.687917,0.0529 -0.926042,0.635 -0.396875,0 -0.79375,0 -1.217083,0 0.02646,-0.635 0.343958,-1.00542 0.899583,-1.19063 0.661459,-0.23812 1.322917,-0.23812 2.010834,-0.0529 0.635,0.18521 0.899583,0.68792 0.926041,1.27 0.05292,1.00542 0,2.0373 0,3.06917 -0.343958,0 -0.714375,0 -1.11125,0 -0.05292,-0.15875 -0.07937,-0.3175 -0.105833,-0.42333 -0.3175,0.18521 -0.635,0.37041 -0.978958,0.55562 -0.3175,0.0265 -0.661459,0.0265 -0.978959,0.0265 z m 2.06375,-2.27542 c -0.502708,0.0529 -0.846666,0.0529 -1.164166,0.15875 -0.211667,0.0529 -0.423334,0.23813 -0.529167,0.4498 -0.185208,0.29104 -0.02646,0.635 0.264583,0.79375 0.370417,0.21166 0.926042,0.10583 1.11125,-0.26459 0.132292,-0.3175 0.185209,-0.66146 0.3175,-1.13771 z"
       id="path4500"
       inkscape:connector-curvature="0"
       style="fill:#010101;stroke-width:0.26458332" />
    <path
       class="st2"
       d="m 138.1125,175.87374 c -0.0529,-0.0265 -0.13229,-0.0794 -0.18521,-0.10583 -0.89958,-0.29104 -1.29646,-0.9525 -1.34937,-1.85209 -0.0529,-0.89958 0.10583,-1.7727 0.9525,-2.27541 0.79375,-0.47625 1.66687,-0.47625 2.48708,0 0.68792,0.39687 0.9525,1.11125 0.87313,2.2225 -1.00542,0 -2.0373,0 -3.04271,0 -0.10584,0.60854 0.21166,1.13771 0.66146,1.24354 0.60854,0.13229 0.9525,-0.0529 1.16416,-0.68792 0.37042,0 0.76729,0 1.16417,0 -0.0265,0.635 -0.42333,1.11125 -1.08479,1.32292 -0.13229,0.0529 -0.26459,0.10583 -0.39688,0.15875 -0.42333,-0.0265 -0.82021,-0.0265 -1.24354,-0.0265 z m 1.56104,-2.77812 c 0,-0.71438 -0.3175,-1.05834 -0.89958,-1.03188 -0.60854,0.0265 -0.9525,0.42333 -0.89958,1.03188 0.60854,0 1.21708,0 1.79916,0 z"
       id="path4502"
       inkscape:connector-curvature="0"
       style="fill:#010101;stroke-width:0.26458332" />
    <path
       class="st2"
       d="m 114.90854,175.87374 c -0.0529,-0.0265 -0.13229,-0.0794 -0.18521,-0.10583 -1.05833,-0.39688 -1.56104,-1.24354 -1.4552,-2.46063 0.10583,-1.08479 0.76729,-1.79916 1.87854,-1.93146 0.42333,-0.0529 0.87312,-0.0529 1.29646,0.0529 1.00541,0.21167 1.61395,1.08479 1.5875,2.19604 0,1.11125 -0.635,1.93146 -1.61396,2.19604 -0.0794,0.0265 -0.15875,0.0529 -0.23813,0.10584 -0.44979,-0.0529 -0.87312,-0.0529 -1.27,-0.0529 z m -0.37041,-2.30187 c 0.0529,0.3175 0.0794,0.635 0.1852,0.92604 0.1323,0.39687 0.42334,0.635 0.87313,0.635 0.39687,0 0.71437,-0.18521 0.87312,-0.55563 0.29105,-0.66146 0.29105,-1.32291 0,-1.98437 -0.15875,-0.39688 -0.5027,-0.55563 -0.92604,-0.52917 -0.42333,0.0265 -0.68791,0.23813 -0.82021,0.635 -0.10583,0.26458 -0.13229,0.55563 -0.1852,0.87313 z"
       id="path4504"
       inkscape:connector-curvature="0"
       style="fill:#010101;stroke-width:0.26458332" />
    <path
       class="st2"
       d="m 167.98396,175.87374 c -0.10584,-0.0529 -0.18521,-0.13229 -0.29104,-0.18521 -0.97896,-0.39687 -1.4023,-1.21708 -1.27,-2.54 0.0794,-0.87312 0.74083,-1.64041 1.66687,-1.77271 0.47625,-0.0794 1.00542,-0.0794 1.48167,0.0265 1.03187,0.21167 1.56104,1.03188 1.53458,2.27542 0,1.03187 -0.60854,1.82562 -1.56104,2.09021 -0.0794,0.0265 -0.15875,0.0529 -0.23813,0.10583 -0.44979,0 -0.89958,0 -1.32291,0 z m 1.87854,-2.27542 c -0.0529,-0.3175 -0.10583,-0.60854 -0.18521,-0.87312 -0.15875,-0.44979 -0.47625,-0.68792 -0.89958,-0.68792 -0.42334,0 -0.76729,0.23813 -0.92604,0.66146 -0.18521,0.60854 -0.21167,1.21708 0.0529,1.82563 0.15875,0.37041 0.44979,0.58208 0.87313,0.55562 0.39687,0 0.71437,-0.18521 0.87312,-0.55562 0.0794,-0.29105 0.13229,-0.60855 0.21167,-0.92605 z"
       id="path4506"
       inkscape:connector-curvature="0"
       style="fill:#010101;stroke-width:0.26458332" />
    <path
       class="st2"
       d="m 149.67479,175.87374 c -0.0265,-0.0265 -0.0794,-0.0794 -0.10583,-0.10583 -1.42875,-0.58209 -1.93146,-2.54 -0.92604,-3.75709 0.66146,-0.79375 1.56104,-0.87312 2.51354,-0.635 0.79375,0.21167 1.24354,0.84667 1.32292,1.77271 0.0265,0.21167 0.0265,0.39688 0.0529,0.635 -1.05833,0 -2.09021,0 -3.12208,0 -0.0529,0.68792 0.21167,1.16417 0.68792,1.27 0.58208,0.13229 0.89958,-0.0529 1.16416,-0.68791 0.37042,0 0.76729,0 1.16417,0 -0.10583,0.71437 -0.52917,1.19062 -1.24354,1.37583 -0.10584,0.0265 -0.18521,0.0794 -0.29104,0.10583 -0.39688,0.0265 -0.79375,0.0265 -1.21709,0.0265 z m 1.64042,-2.77812 c -0.0529,-0.79375 -0.37042,-1.0848 -1.05833,-1.00542 -0.55563,0.0529 -0.84667,0.47625 -0.7673,1.00542 0.60855,0 1.21709,0 1.82563,0 z"
       id="path4508"
       inkscape:connector-curvature="0"
       style="fill:#010101;stroke-width:0.26458332" />
    <path
       class="st2"
       d="m 96.202501,175.87374 c -0.05292,-0.0529 -0.132292,-0.10583 -0.185209,-0.13229 -1.058333,-0.39688 -1.561041,-1.27 -1.455208,-2.43417 0.105833,-1.11125 0.767292,-1.77271 1.905,-1.98437 1.375833,-0.23813 2.513542,0.39687 2.778125,1.5875 0.291042,1.37583 -0.3175,2.64583 -1.666875,2.88396 -0.02646,0 -0.02646,0.0529 -0.02646,0.0529 -0.47625,0.0265 -0.926042,0.0265 -1.349375,0.0265 z m -0.370417,-2.27542 c 0.07937,0.3175 0.105833,0.635 0.211667,0.9525 0.132291,0.39688 0.449791,0.58209 0.846666,0.58209 0.396875,0 0.687917,-0.15875 0.846667,-0.50271 0.3175,-0.66146 0.3175,-1.34938 0.02646,-2.01083 -0.15875,-0.39688 -0.502708,-0.55563 -0.926041,-0.52917 -0.423334,0.0265 -0.687917,0.23812 -0.820209,0.60854 -0.07937,0.26458 -0.105833,0.58208 -0.185208,0.89958 z"
       id="path4510"
       inkscape:connector-curvature="0"
       style="fill:#010101;stroke-width:0.26458332" />
    <path
       class="st2"
       d="m 82.735209,175.87374 c -0.07937,-0.0529 -0.132291,-0.10583 -0.211666,-0.13229 -0.343959,-0.13229 -0.529167,-0.39688 -0.555625,-0.74083 -0.02646,-0.7673 -0.02646,-1.56105 -0.02646,-2.32834 0,-0.13229 0,-0.23812 0,-0.39687 -0.291041,0 -0.529166,0 -0.79375,0 0,-0.29104 0,-0.55563 0,-0.84667 0.264584,0 0.502709,0 0.820209,0 -0.238125,-1.05833 0.687916,-0.87312 1.217083,-1.27 0,0.44979 0,0.82021 0,1.24354 0.343958,0 0.687917,0 1.031875,0 0,0.3175 0,0.55563 0,0.84667 -0.343958,0 -0.661458,0 -1.005417,0 0,0.79375 0,1.56104 0,2.30187 0,0.29105 0.211667,0.39688 0.449792,0.42334 0.185208,0.0265 0.343958,0 0.529167,0 0,0.23812 0,0.47625 0,0.74083 -0.132292,0.0529 -0.264584,0.10583 -0.370417,0.15875 -0.370417,0 -0.714375,0 -1.084791,0 z"
       id="path4512"
       inkscape:connector-curvature="0"
       style="fill:#010101;stroke-width:0.26458332" />
    <path
       class="st2"
       d="m 146.23521,175.87374 c -0.76729,-0.34396 -0.84667,-0.97896 -0.82021,-1.71979 0.0265,-0.635 0,-1.24354 0,-1.905 -0.29104,0 -0.52917,0 -0.82021,0 0,-0.29104 0,-0.52917 0,-0.82021 0.23813,0 0.50271,0 0.82021,0 -0.23812,-1.05833 0.68792,-0.89958 1.21708,-1.27 0,0.44979 0,0.82021 0,1.24354 0.37042,0 0.68792,0 1.03188,0 0,0.29104 0,0.55563 0,0.84667 -0.3175,0 -0.635,0 -1.00542,0 0,0.79375 0,1.53458 0,2.27542 0,0.29104 0.21167,0.44979 0.52917,0.47625 0.15875,0 0.29104,0 0.47625,0 0,0.23812 0,0.47625 0,0.74083 -0.10583,0.0529 -0.23813,0.10583 -0.37042,0.15875 -0.34396,-0.0265 -0.68791,-0.0265 -1.05833,-0.0265 z"
       id="path4514"
       inkscape:connector-curvature="0"
       style="fill:#010101;stroke-width:0.26458332" />
    <path
       class="st2"
       d="m 142.95438,175.87374 c -0.79375,-0.29104 -0.84667,-0.92604 -0.82021,-1.64042 0.0265,-0.635 0,-1.27 0,-1.95791 -0.26459,0 -0.50271,0 -0.79375,0 0,-0.29104 0,-0.55563 0,-0.84667 0.23812,0 0.50271,0 0.82021,0 -0.26459,-1.05833 0.68791,-0.87312 1.19062,-1.27 0,0.44979 0,0.82021 0,1.24354 0.34396,0 0.66146,0 1.00542,0 0,0.29104 0,0.55563 0,0.84667 -0.3175,0 -0.635,0 -0.97896,0 0,0.79375 0,1.53458 0,2.27542 0,0.26458 0.18521,0.42333 0.44979,0.44979 0.15875,0.0265 0.34396,0 0.52917,0 0,0.23812 0,0.50271 0,0.74083 -0.10584,0.0529 -0.21167,0.10583 -0.34396,0.15875 -0.34396,0 -0.68792,0 -1.05833,0 z"
       id="path4516"
       inkscape:connector-curvature="0"
       style="fill:#010101;stroke-width:0.26458332" />
    <path
       class="st2"
       d="m 104.98667,154.91874 c -2.09021,0 -4.1275,0 -6.217711,0 0,-11.03312 0,-22.03979 0,-33.07292 2.116671,0 4.206871,0 6.350001,0 0,4.39209 0,8.75771 0,13.17625 0.18521,0 0.3175,0 0.47625,0 1.66687,0 3.33375,-0.0529 5.00062,0.0529 2.19605,0.15875 3.57188,1.61396 3.81,3.78354 0.0265,0.34396 0.0529,0.68792 0.0529,1.03188 0,4.84187 0,9.71021 0,14.55208 0,0.15875 0,0.29104 0,0.44979 -0.0794,0.0265 -0.10583,0.0529 -0.15875,0.0529 -1.08479,0.0265 -2.16958,0.0265 -3.22792,0.0265 -1.69333,0 -2.64583,-0.97896 -2.64583,-2.67229 0,-4.20688 0,-8.41375 0,-12.62063 0,-0.71437 -0.3175,-1.24354 -0.9525,-1.56104 -0.60854,-0.3175 -1.24354,-0.26458 -1.79917,0.13229 -0.39687,0.29104 -0.60854,0.68792 -0.66145,1.16417 -0.0265,0.18521 -0.0265,0.37041 -0.0265,0.58208 0,4.81542 0,9.63083 0,14.44625 0,0.13229 0,0.29104 0,0.47625 z"
       id="path4518"
       inkscape:connector-curvature="0"
       style="fill:#010101;stroke-width:0.26458332" />
    <path
       class="st1"
       d="m 65.537293,138.32937 c -1.190625,0 -2.38125,0.0264 -3.545417,0 -0.79375,0 -1.613958,-0.0265 -2.407708,-0.10584 -1.42875,-0.18521 -2.116667,-0.97896 -2.143125,-2.40771 0,-0.21166 -0.02646,-0.39687 -0.05292,-0.60854 -0.291041,-1.69333 -1.640416,-1.87854 -2.804583,-1.53458 -0.767292,0.21167 -1.005417,0.89958 -1.137708,1.61396 -0.02646,0.21166 -0.05292,0.42333 -0.05292,0.66146 0,4.3127 0,8.62541 0,12.96458 0,0.23812 0,0.50271 0.05292,0.74083 0.264583,1.40229 1.534583,2.06375 2.8575,1.50813 0.820208,-0.34396 1.005416,-1.11125 1.11125,-1.87854 0.05292,-0.37042 0.02646,-0.7673 0.05292,-1.13771 0.105834,-1.16417 0.846667,-2.01084 2.037292,-2.24896 0.264583,-0.0529 0.529167,-0.0794 0.820208,-0.0794 1.613959,-0.0265 3.227917,-0.0529 4.841875,-0.0529 0.15875,0 0.291042,0 0.47625,0 0,1.82562 0.05292,3.62479 -0.740833,5.29166 -0.820209,1.69334 -2.328333,2.64584 -4.048125,3.22792 -1.296458,0.42333 -2.645833,0.58208 -4.021667,0.68792 -1.613958,0.10583 -3.227916,0.0529 -4.815416,-0.18521 -1.719792,-0.23813 -3.33375,-0.74083 -4.656667,-1.905 -1.243542,-1.08479 -1.957917,-2.43417 -1.957917,-4.10104 0,-4.1275 0,-8.255 0,-12.3825 0,-2.19604 1.031875,-3.81 2.831042,-4.94771 1.164167,-0.74083 2.487083,-1.05833 3.862917,-1.24354 2.010833,-0.26459 4.021666,-0.26459 6.0325,-0.0529 1.455208,0.15875 2.8575,0.47625 4.1275,1.19063 2.143124,1.16416 3.254374,2.96333 3.307291,5.3975 -0.02646,0.42333 -0.02646,0.97895 -0.02646,1.5875 z"
       id="path4520"
       inkscape:connector-curvature="0"
       style="fill:#df2626;stroke-width:0.26458332" />
    <path
       class="st2"
       d="m 169.78312,144.97041 c 0,1.66687 0.0265,3.33375 0,5.00062 -0.0264,1.71979 -0.84666,2.98979 -2.30187,3.86292 -1.27,0.76729 -2.69875,1.08479 -4.15396,1.19062 -1.56104,0.1323 -3.09562,0.10584 -4.65667,-0.15875 -1.53458,-0.26458 -2.98979,-0.76729 -4.12749,-1.93145 -0.79375,-0.82021 -1.21709,-1.85209 -1.21709,-2.9898 -0.0265,-3.33375 -0.0265,-6.64104 0,-9.97479 0.0265,-1.74625 0.89959,-3.01625 2.38125,-3.88937 1.19063,-0.68792 2.48708,-1.00542 3.83646,-1.13771 1.69333,-0.15875 3.41312,-0.15875 5.10646,0.15875 1.34937,0.26458 2.61937,0.68792 3.65125,1.61396 0.89958,0.82021 1.42875,1.82562 1.45521,3.04271 0.0529,1.74625 0.0264,3.4925 0.0264,5.21229 0,0 0,0 0,0 z m -6.56166,-0.0794 c 0,-1.85208 0,-3.73062 0,-5.58271 0,-1.16416 -0.9525,-1.95791 -2.03729,-1.69333 -0.84667,0.21167 -1.4023,0.89958 -1.4023,1.85208 0,1.98438 0,3.99521 0,5.97959 0,1.64041 -0.0265,3.28083 0,4.92125 0.0265,1.08479 0.82021,1.77271 1.905,1.74625 0.89959,-0.0265 1.50813,-0.76729 1.50813,-1.79917 0.0265,-1.77271 0.0265,-3.59833 0.0265,-5.42396 z"
       id="path4522"
       inkscape:connector-curvature="0"
       style="fill:#010101;stroke-width:0.26458332" />
    <path
       class="st2"
       d="m 96.070209,144.99687 c 0,1.4552 -0.02646,2.91041 0,4.33916 0.07937,2.80459 -1.42875,4.33917 -3.677708,5.10646 -1.455209,0.50271 -2.936875,0.60854 -4.471458,0.60854 -1.375834,0 -2.751667,-0.0794 -4.074584,-0.44979 -1.164166,-0.3175 -2.2225,-0.82021 -3.069166,-1.71979 -0.820209,-0.89958 -1.190625,-1.98438 -1.190625,-3.175 -0.02646,-3.09563 0,-6.19125 0,-9.26042 0,-2.24896 1.058333,-3.81 3.095625,-4.70958 1.137708,-0.50271 2.328333,-0.74083 3.571875,-0.82021 1.693333,-0.10583 3.413125,-0.10583 5.079999,0.26458 1.349375,0.29105 2.619375,0.79375 3.571875,1.82563 0.846667,0.89958 1.164167,1.98437 1.190625,3.175 -0.02646,1.61396 -0.02646,3.22792 -0.02646,4.81542 z m -6.588125,-0.1323 c 0,-1.82562 0,-3.65125 0,-5.50333 0,-1.05833 -0.687916,-1.82562 -1.640416,-1.82562 -0.978959,0 -1.799167,0.84666 -1.799167,1.85208 0,3.65125 0,7.3025 0,10.92729 0,0.13229 0,0.23813 0.02646,0.37042 0.185209,0.92604 1.031875,1.53458 1.984375,1.42875 0.820209,-0.0794 1.402292,-0.79375 1.402292,-1.74625 0.02646,-1.79917 0.02646,-3.65125 0.02646,-5.50334 z"
       id="path4524"
       inkscape:connector-curvature="0"
       style="fill:#010101;stroke-width:0.26458332" />
    <path
       class="st2"
       d="m 178.35562,154.91874 c -1.905,0 -3.78354,0 -5.66208,0 0,-6.64104 0,-13.25562 0,-19.89667 0.13229,0 0.26458,-0.0265 0.39688,-0.0265 3.43958,0 6.87916,-0.0265 10.3452,0 2.75167,0.0529 4.36563,1.74625 4.39209,4.36562 0.0529,5.08 0.0265,10.16 0.0265,15.24 0,0.0794 0,0.18521 -0.0265,0.3175 -0.58209,0 -1.11125,0 -1.66688,0 -0.58208,0 -1.16416,0.0265 -1.77271,0.0265 -1.66687,-0.0265 -2.61937,-1.00542 -2.61937,-2.67229 0,-4.20688 0,-8.38729 0,-12.59417 0,-0.9525 -0.50271,-1.56104 -1.42875,-1.77271 -0.92604,-0.21166 -1.87854,0.47625 -1.95792,1.42875 -0.0265,0.21167 -0.0265,0.44979 -0.0265,0.66146 0,4.81542 0,9.63083 0,14.41979 0,0.18521 0,0.34396 0,0.50271 z"
       id="path4526"
       inkscape:connector-curvature="0"
       style="fill:#010101;stroke-width:0.26458332" />
    <path
       class="st2"
       d="m 123.11063,154.91874 c -1.905,0 -3.75709,0 -5.63563,0 0,-6.61458 0,-13.25562 0,-19.89667 0.10583,0 0.21167,-0.0265 0.34396,-0.0265 3.46604,0 6.93208,-0.0265 10.42458,0 2.48709,0.0265 4.07459,1.50812 4.31271,3.91583 0.0265,0.3175 0.0529,0.66146 0.0529,0.97896 0,4.84187 0,9.68375 0,14.52562 0,0.15875 0,0.3175 0,0.50271 -0.74084,0 -1.42875,0 -2.11667,0 -0.55562,0 -1.08479,0.0529 -1.64042,0 -1.42875,-0.13229 -2.27541,-1.05833 -2.27541,-2.48708 0,-4.25979 0,-8.49313 0,-12.75292 0,-0.89958 -0.52917,-1.53458 -1.37584,-1.74625 -1.00541,-0.23812 -1.93145,0.44979 -2.06375,1.45521 -0.0264,0.18521 -0.0264,0.37042 -0.0264,0.58208 0,4.81542 0,9.63084 0,14.44625 0,0.15875 0,0.3175 0,0.50271 z"
       id="path4528"
       inkscape:connector-curvature="0"
       style="fill:#010101;stroke-width:0.26458332" />
    <path
       class="st2"
       d="m 150.70667,141.74249 c -1.48167,0 -2.83104,0.0529 -4.20688,-0.0265 -1.16416,-0.0794 -1.82562,-0.87312 -1.85208,-2.03729 0,-0.37042 -0.0529,-0.76729 -0.15875,-1.13771 -0.0529,-0.21166 -0.21167,-0.44979 -0.39688,-0.58208 -1.24354,-0.82021 -2.80458,-0.0265 -2.8575,1.45521 -0.0264,0.79375 -0.0264,1.5875 0,2.38125 0.0265,0.89958 0.79375,1.50812 1.82563,1.56104 1.34937,0.0794 2.72521,0.13229 4.07458,0.34396 1.79917,0.29104 2.98979,1.56104 3.25438,3.28083 0.10583,0.76729 0.0265,1.56104 0.0265,2.32833 0,0.60855 0.0529,1.21709 -0.0265,1.79917 -0.21167,1.37583 -1.05834,2.32833 -2.24896,2.98979 -1.05833,0.58209 -2.2225,0.79375 -3.41313,0.87313 -1.56104,0.13229 -3.09562,0.10583 -4.6302,-0.26459 -2.09021,-0.47625 -3.73063,-1.56104 -4.445,-3.6777 -0.39688,-1.11125 -0.37042,-2.30188 -0.37042,-3.46605 0.0265,-0.0265 0.0529,-0.0529 0.0794,-0.0529 1.37584,0 2.72521,-0.0265 4.10105,0.0529 1.05833,0.0529 1.66687,0.79375 1.71979,1.87855 0.0265,0.5027 0.0794,1.00541 0.18521,1.50812 0.15875,0.68792 0.60854,1.03188 1.24354,1.08479 0.97896,0.0529 1.50812,-0.18521 1.77271,-0.89958 0.10583,-0.29104 0.1852,-0.635 0.1852,-0.9525 0.0265,-0.76729 0.0265,-1.53458 0,-2.30188 -0.0529,-0.89958 -0.60854,-1.32291 -1.50812,-1.37583 -1.29646,-0.0794 -2.59292,-0.10583 -3.86292,-0.3175 -1.85208,-0.3175 -3.14854,-1.37583 -3.67771,-3.22792 -0.0794,-0.23812 -0.0794,-0.47625 -0.10583,-0.71437 0,-0.92604 0.0265,-1.85208 0,-2.77813 -0.0265,-1.50812 0.66146,-2.59291 1.85208,-3.38666 1.03188,-0.68792 2.19605,-0.9525 3.38667,-1.08479 1.87854,-0.18521 3.73063,-0.21167 5.55625,0.23812 2.2225,0.58208 3.75708,1.87854 4.25979,4.20688 0.13229,0.79375 0.15875,1.56104 0.23813,2.30187 z"
       id="path4530"
       inkscape:connector-curvature="0"
       style="fill:#010101;stroke-width:0.26458332" />
    <path
       class="st2"
       d="m 127,165.92541 c -0.39687,0 -0.79375,0 -1.21708,0 0,-1.42875 0,-2.8575 0,-4.31271 0.37041,0 0.74083,0 1.16416,0 0.0265,0.15875 0.0529,0.34396 0.0794,0.60854 0.39687,-0.52917 0.92604,-0.71437 1.48167,-0.71437 0.58208,0.0265 1.05833,0.21166 1.32291,0.8202 0.50271,-0.68791 1.13771,-0.92604 1.905,-0.76729 0.74084,0.13229 1.16417,0.58209 1.19063,1.34938 0.0529,1.00541 0,1.98437 0,2.98979 -0.42334,0 -0.79375,0 -1.24354,0 0,-0.42333 0,-0.84667 0,-1.24354 0,-0.52917 0,-1.03188 -0.0265,-1.56104 -0.0265,-0.4498 -0.29104,-0.68792 -0.71438,-0.74084 -0.42333,-0.0265 -0.79375,0.18521 -0.87312,0.635 -0.0794,0.39688 -0.0794,0.79375 -0.0794,1.16417 0,0.58208 0,1.13771 0,1.74625 -0.39687,0 -0.79375,0 -1.24354,0 0,-0.21167 0,-0.44979 0,-0.66146 0,-0.71437 0,-1.42875 -0.0265,-2.11667 -0.0265,-0.44979 -0.3175,-0.71437 -0.71437,-0.74083 -0.39688,-0.0265 -0.76729,0.21167 -0.87313,0.60854 -0.0529,0.23813 -0.0794,0.47625 -0.0794,0.71438 0,0.71437 0,1.42875 0,2.14312 0,0 -0.0265,0.0265 -0.0529,0.0794 z"
       id="path4532"
       inkscape:connector-curvature="0"
       style="fill:#010101;stroke-width:0.26458332" />
    <path
       class="st2"
       d="m 100.48875,165.92541 c -0.42333,0 -0.820208,0 -1.243541,0 0,-0.66146 0,-1.32292 0,-1.95792 0,-0.29104 0,-0.58208 -0.02646,-0.84667 -0.05292,-0.44979 -0.343959,-0.71437 -0.740834,-0.74083 -0.396875,-0.0265 -0.767291,0.23813 -0.846666,0.635 -0.05292,0.26458 -0.07938,0.55563 -0.07938,0.84667 0,0.68791 0,1.37583 0,2.06375 -0.396875,0 -0.79375,0 -1.243542,0 0,-1.42875 0,-2.8575 0,-4.28625 0.370417,0 0.740833,0 1.137708,0 0.02646,0.15875 0.05292,0.34396 0.105834,0.58208 0.396875,-0.50271 0.899583,-0.71437 1.481666,-0.68792 0.582084,0.0265 1.058335,0.21167 1.322915,0.82021 0.47625,-0.68791 1.13771,-0.89958 1.905,-0.76729 0.74083,0.13229 1.13771,0.55563 1.19062,1.29646 0.0529,1.00542 0,2.01083 0,3.04271 -0.42333,0 -0.79375,0 -1.24354,0 0,-0.58209 0,-1.13771 0,-1.71979 0,-0.34396 0,-0.71438 -0.0265,-1.05834 -0.0264,-0.47625 -0.29104,-0.74083 -0.74083,-0.76729 -0.44979,-0.0265 -0.82021,0.21167 -0.87312,0.66146 -0.0529,0.39687 -0.0529,0.79375 -0.0794,1.19062 -0.0265,0.55563 0,1.11125 0,1.69334 z"
       id="path4534"
       inkscape:connector-curvature="0"
       style="fill:#010101;stroke-width:0.26458332" />
    <path
       class="st2"
       d="m 162.42771,172.56645 c -0.3175,0.97896 -0.635,1.93146 -0.9525,2.8575 -0.0794,0.23812 -0.15875,0.34396 -0.44979,0.34396 -1.00542,0 -1.00542,0 -1.34938,-0.97896 -0.39687,-1.11125 -0.79375,-2.2225 -1.19062,-3.36021 0.44979,0 0.89958,0 1.34937,0 0.29104,1.03188 0.58208,2.09021 0.89958,3.25438 0.10584,-0.3175 0.18521,-0.55563 0.26459,-0.7673 0.23812,-0.74083 0.47625,-1.50812 0.74083,-2.24895 0.0265,-0.10584 0.21167,-0.23813 0.3175,-0.23813 1.16417,-0.0794 1.16417,-0.0529 1.48167,1.05833 0.21166,0.68792 0.42333,1.37584 0.635,2.06375 0,0.0265 0.0265,0.0529 0.0794,0.10584 0.26459,-0.97896 0.55563,-1.93146 0.82021,-2.91042 0.0794,-0.26458 0.15875,-0.37042 0.44979,-0.34396 0.26459,0.0265 0.52917,0 0.82021,0 -0.0529,0.18521 -0.10583,0.3175 -0.15875,0.47625 -0.39687,1.19063 -0.82021,2.35479 -1.21708,3.54542 -0.0794,0.23812 -0.18521,0.34396 -0.44979,0.34396 -1.03188,0 -1.00542,0 -1.32292,-0.97896 -0.23813,-0.71438 -0.44979,-1.42875 -0.68792,-2.14313 0,0 -0.0265,-0.0264 -0.0794,-0.0794 z"
       id="path4536"
       inkscape:connector-curvature="0"
       style="fill:#010101;stroke-width:0.26458332" />
    <path
       class="st2"
       d="m 90.593334,172.59291 c -0.291042,0.84666 -0.582083,1.71979 -0.873125,2.56646 -0.185208,0.58208 -0.185208,0.58208 -0.846666,0.58208 -0.15875,0 -0.343959,0.0265 -0.502709,0 -0.105833,-0.0265 -0.238125,-0.10583 -0.291041,-0.21167 -0.502709,-1.34937 -0.978959,-2.72521 -1.481667,-4.15396 0.449792,0 0.846667,-0.0265 1.243542,0.0265 0.07937,0 0.15875,0.18521 0.211666,0.29104 0.238125,0.87313 0.47625,1.74625 0.714375,2.64584 0.02646,0.0794 0.05292,0.18521 0.105834,0.34396 0.370416,-1.13771 0.714375,-2.19605 1.058333,-3.28084 0.47625,0 0.926041,0 1.402291,0 0.3175,1.05834 0.635,2.11667 0.978959,3.175 0.02646,0 0.05292,0 0.07937,0 0.291041,-1.05833 0.582083,-2.11666 0.899583,-3.175 0.396875,0 0.740833,0 1.164167,0 -0.07937,0.21167 -0.132292,0.39688 -0.185209,0.58209 -0.396875,1.16416 -0.79375,2.30187 -1.190625,3.46604 -0.07937,0.21166 -0.15875,0.29104 -0.396875,0.29104 -1.058333,0 -1.058333,0 -1.349375,-0.97896 -0.238125,-0.71437 -0.449791,-1.45521 -0.687916,-2.16958 0,0 -0.02646,0 -0.05292,0 z"
       id="path4538"
       inkscape:connector-curvature="0"
       style="fill:#010101;stroke-width:0.26458332" />
    <path
       class="st2"
       d="m 86.121876,165.92541 c -0.529167,0 -0.978958,0 -1.481667,0 -0.132291,-0.37042 -0.264583,-0.76729 -0.449791,-1.16417 -0.05292,-0.10583 -0.211667,-0.23812 -0.343959,-0.23812 -0.740833,-0.0265 -1.481666,0 -2.2225,-0.0265 -0.211666,0 -0.3175,0.0794 -0.370416,0.26458 -0.132292,0.37042 -0.264584,0.74083 -0.423334,1.11125 -0.423333,0 -0.846666,0 -1.322916,0 0.132291,-0.3175 0.238125,-0.60854 0.343958,-0.89958 0.661458,-1.66688 1.349375,-3.33375 2.010833,-5.00063 0.105834,-0.23812 0.211667,-0.34396 0.47625,-0.3175 0.396875,0.0265 0.873125,-0.10583 1.164167,0.0794 0.264583,0.15875 0.343958,0.66146 0.47625,1.00541 0.714375,1.74625 1.42875,3.43959 2.143125,5.18584 z m -2.38125,-2.35479 c -0.343958,-0.9525 -0.635,-1.87855 -1.005417,-2.88396 -0.370416,1.03187 -0.687916,1.95791 -1.031875,2.91041 0.582084,0 1.11125,0 1.640417,0 0.132292,-0.0265 0.238125,-0.0265 0.396875,-0.0265 z"
       id="path4540"
       inkscape:connector-curvature="0"
       style="fill:#010101;stroke-width:0.26458332" />
    <path
       class="st2"
       d="m 135.22854,165.47562 c 0,0.71437 0,1.40229 0,2.11666 -0.42333,0 -0.82021,0 -1.24354,0 0,-1.98437 0,-3.94229 0,-5.95312 0.37042,0 0.76729,0 1.19063,0 0,0.18521 0.0264,0.34396 0.0264,0.55562 0.0529,-0.0529 0.10584,-0.0794 0.15875,-0.13229 0.87313,-0.92604 2.40771,-0.68792 2.93688,0.44979 0.39687,0.87313 0.34396,1.77271 -0.10583,2.59292 -0.635,1.05833 -1.87855,1.21708 -2.96334,0.37042 z m -0.0794,-1.77271 c 0.0529,0.34396 0.0529,0.58208 0.13229,0.82021 0.13229,0.47625 0.42333,0.74083 0.84667,0.76729 0.42333,0.0265 0.76729,-0.21167 0.9525,-0.68792 0.21166,-0.58208 0.21166,-1.16417 -0.0529,-1.74625 -0.15875,-0.3175 -0.39688,-0.52917 -0.79375,-0.52917 -0.39688,0 -0.66146,0.15875 -0.82021,0.50271 -0.13229,0.26459 -0.18521,0.60854 -0.26458,0.87313 z"
       id="path4542"
       inkscape:connector-curvature="0"
       style="fill:#010101;stroke-width:0.26458332" />
    <path
       class="st2"
       d="m 104.58979,173.25437 c 0.44979,-0.52917 0.92604,-1.03188 1.37584,-1.56105 0.1852,-0.21166 0.34395,-0.29104 0.635,-0.29104 0.34395,0.0265 0.71437,0 1.1377,0 -0.635,0.66146 -1.19062,1.24354 -1.7727,1.85209 0.635,0.8202 1.27,1.64041 1.95791,2.51354 -0.55562,0 -1.00541,0.0265 -1.45521,0 -0.10583,0 -0.23812,-0.13229 -0.3175,-0.26459 -0.5027,-0.68791 -1.00541,-1.37583 -1.5875,-2.16958 0,0.87313 0,1.61396 0,2.40771 -0.44979,0 -0.8202,0 -1.24354,0 0,-2.06375 0,-4.1275 0,-6.19125 0.39688,0 0.79375,0 1.21709,0 0,1.21708 0,2.43417 0,3.65125 -0.0265,0.0265 0.0264,0.0265 0.0529,0.0529 z"
       id="path4544"
       inkscape:connector-curvature="0"
       style="fill:#010101;stroke-width:0.26458332" />
    <path
       class="st2"
       d="m 91.492917,162.82978 c 0.02646,-0.58208 0.291042,-0.9525 0.767292,-1.13771 0.740833,-0.3175 1.481667,-0.3175 2.248958,-0.0794 0.529167,0.18521 0.79375,0.635 0.79375,1.16417 0.02646,1.03187 0,2.06375 0,3.12208 -0.3175,0 -0.687916,0 -1.11125,0 -0.02646,-0.13229 -0.07937,-0.29104 -0.105833,-0.50271 -0.502708,0.60854 -1.137708,0.71438 -1.852083,0.55563 -0.582084,-0.10584 -0.9525,-0.50271 -1.031875,-1.03188 -0.07937,-0.68792 0.105833,-1.19062 0.714375,-1.40229 0.529166,-0.18521 1.11125,-0.21167 1.666875,-0.3175 0.15875,-0.0265 0.3175,0 0.47625,0 0.05292,-0.68792 -0.07937,-0.97896 -0.47625,-1.05833 -0.47625,-0.0794 -0.714375,0.0794 -0.846667,0.66145 -0.396875,0.0265 -0.79375,0.0265 -1.243542,0.0265 z m 2.645834,1.03188 c -0.529167,-0.0529 -0.978959,-0.0529 -1.375834,0.18521 -0.15875,0.10583 -0.291041,0.3175 -0.3175,0.5027 -0.07938,0.34396 0.132292,0.55563 0.449792,0.68792 0.370417,0.13229 0.820208,-0.0265 0.978958,-0.37042 0.132292,-0.29104 0.185209,-0.635 0.264584,-1.00541 z"
       id="path4546"
       inkscape:connector-curvature="0"
       style="fill:#010101;stroke-width:0.26458332" />
    <path
       class="st2"
       d="m 141.76375,165.4227 c -0.55562,0.66146 -1.27,0.74083 -2.01083,0.52917 -0.44979,-0.1323 -0.76729,-0.42334 -0.84667,-0.89959 -0.0794,-0.50271 -0.0794,-1.03187 0.44979,-1.29646 0.44979,-0.23812 0.97896,-0.34395 1.48167,-0.47625 0.29104,-0.0529 0.60854,0 0.92604,0 0.0529,-0.68791 -0.13229,-1.00541 -0.52917,-1.05833 -0.47625,-0.0529 -0.66145,0.0794 -0.8202,0.66146 -0.39688,0 -0.79375,0 -1.24355,0 -0.0264,-0.50271 0.21167,-0.87313 0.635,-1.08479 0.79375,-0.39688 1.61396,-0.39688 2.40771,-0.10584 0.42334,0.15875 0.68792,0.52917 0.71438,0.97896 0.0529,0.89959 0.0529,1.79917 0.0794,2.69875 0,0.18521 0.0265,0.37042 0.0265,0.58209 -0.37042,0 -0.76729,0 -1.19062,0 0.0265,-0.18521 -0.0265,-0.34396 -0.0794,-0.52917 z m 0.0794,-1.61396 c -0.42334,0.0529 -0.79375,0.0529 -1.13771,0.15875 -0.47625,0.13229 -0.68792,0.52917 -0.52917,0.92604 0.15875,0.37042 0.71438,0.55563 1.08479,0.29104 0.18521,-0.10583 0.34396,-0.34395 0.44979,-0.55562 0.0794,-0.21167 0.0794,-0.47625 0.1323,-0.82021 z"
       id="path4548"
       inkscape:connector-curvature="0"
       style="fill:#010101;stroke-width:0.26458332" />
    <path
       class="st2"
       d="m 145.17688,161.63916 c 0.0264,0.15875 0.0529,0.34396 0.0794,0.55562 0.50271,-0.52916 1.08479,-0.76729 1.79917,-0.60854 0.76729,0.15875 1.13771,0.52917 1.19062,1.32292 0.0265,1.00541 0,1.98437 0,3.01625 -0.42333,0 -0.82021,0 -1.27,0 0,-0.89959 0,-1.77271 0,-2.64584 -0.0265,-0.71437 -0.635,-1.16416 -1.19062,-0.76729 -0.23813,0.18521 -0.44979,0.52917 -0.47625,0.84667 -0.0794,0.55562 -0.0529,1.11125 -0.0529,1.66687 0,0.29105 0,0.60855 0,0.92605 -0.42333,0 -0.82021,0 -1.24354,0 0,-1.42875 0,-2.83105 0,-4.28625 0.34396,-0.0265 0.74083,-0.0265 1.16417,-0.0265 z"
       id="path4550"
       inkscape:connector-curvature="0"
       style="fill:#010101;stroke-width:0.26458332" />
    <path
       class="st2"
       d="m 122.68729,166.03124 c -1.48166,0 -2.35479,-0.87312 -2.35479,-2.27542 0,-1.37583 0.97896,-2.30187 2.43417,-2.30187 1.42875,0.0265 2.32833,0.89958 2.32833,2.27542 0,1.4552 -0.89958,2.30187 -2.40771,2.30187 z m 1.11125,-2.24896 c -0.0794,-0.3175 -0.10583,-0.66146 -0.21166,-0.9525 -0.15875,-0.37041 -0.4498,-0.58208 -0.87313,-0.58208 -0.44979,0 -0.74083,0.21167 -0.87312,0.58208 -0.23813,0.60854 -0.21167,1.24354 0,1.87854 0.13229,0.39688 0.44979,0.60855 0.87312,0.60855 0.42333,0 0.74083,-0.21167 0.87313,-0.60855 0.10583,-0.29104 0.15875,-0.60854 0.21166,-0.92604 z"
       id="path4552"
       inkscape:connector-curvature="0"
       style="fill:#010101;stroke-width:0.26458332" />
    <path
       class="st2"
       d="m 113.29458,161.58624 c -0.52916,1.29646 -1.03187,2.51354 -1.53458,3.75708 -0.26458,0.635 -0.55562,1.27 -0.79375,1.93146 -0.0794,0.23813 -0.21167,0.34396 -0.47625,0.3175 -0.26458,-0.0265 -0.52917,0 -0.87312,0 0.1852,-0.47625 0.39687,-0.87312 0.55562,-1.32291 0.0529,-0.18521 0.0794,-0.42334 0,-0.60855 -0.50271,-1.19062 -1.05833,-2.35479 -1.5875,-3.54541 -0.0794,-0.15875 -0.13229,-0.3175 -0.23812,-0.52917 0.44979,0 0.84666,-0.0265 1.24354,0.0265 0.10583,0 0.21166,0.18521 0.26458,0.29104 0.34396,0.9525 0.68792,1.905 1.05833,2.93688 0.18521,-0.52917 0.34396,-1.00542 0.52917,-1.45521 0.18521,-0.50271 0.3175,-1.00542 0.52917,-1.50813 0.0529,-0.13229 0.23812,-0.23812 0.37041,-0.26458 0.29105,-0.0529 0.58209,-0.0265 0.9525,-0.0265 z"
       id="path4554"
       inkscape:connector-curvature="0"
       style="fill:#010101;stroke-width:0.26458332" />
    <path
       class="st2"
       d="m 148.51063,161.63916 c 0.0529,-0.0265 0.0794,-0.0265 0.0794,-0.0265 0.42333,0 0.92604,-0.13229 1.24354,0.0529 0.26459,0.1852 0.34396,0.71437 0.47625,1.08479 0.23813,0.66146 0.47625,1.32291 0.71438,1.98437 0,0 0.0265,0 0.0529,0.0265 0.37042,-1.05833 0.74084,-2.11667 1.11125,-3.14854 0.39688,0 0.79375,0 1.24355,0 -0.34396,0.87312 -0.68792,1.71979 -1.03188,2.56646 -0.42333,1.03187 -0.87312,2.03729 -1.27,3.06916 -0.10583,0.29105 -0.26458,0.39688 -0.55562,0.37042 -0.23813,-0.0265 -0.50271,0 -0.79375,0 0.1852,-0.44979 0.39687,-0.87312 0.52916,-1.29646 0.0529,-0.18521 0.0794,-0.44979 0,-0.635 -0.52916,-1.21708 -1.08479,-2.43416 -1.64041,-3.65125 -0.0794,-0.15875 -0.10584,-0.26458 -0.15875,-0.39687 z"
       id="path4556"
       inkscape:connector-curvature="0"
       style="fill:#010101;stroke-width:0.26458332" />
    <path
       class="st2"
       d="m 120.015,163.06791 c -0.42333,0 -0.82021,0 -1.21708,0 -0.10584,-0.37042 -0.15875,-0.79375 -0.68792,-0.82021 -0.50271,-0.0265 -0.89958,0.15875 -0.97896,0.66146 -0.0794,0.55562 -0.0794,1.13771 0,1.69333 0.0794,0.50271 0.42334,0.74083 0.84667,0.71438 0.42333,0 0.60854,-0.18521 0.76729,-0.74084 0.0265,-0.0529 0.0265,-0.10583 0.0529,-0.18521 0.39687,0 0.82021,0 1.32291,0 -0.10583,0.3175 -0.15875,0.635 -0.3175,0.87313 -0.58208,0.82021 -1.48166,0.87312 -2.35479,0.76729 -0.82021,-0.10583 -1.40229,-0.55562 -1.64041,-1.40229 -0.39688,-1.42875 0.23812,-2.72521 1.48166,-3.04271 0.55563,-0.15875 1.11125,-0.13229 1.64042,0.0529 0.66146,0.21166 1.00542,0.71437 1.08479,1.42875 z"
       id="path4558"
       inkscape:connector-curvature="0"
       style="fill:#010101;stroke-width:0.26458332" />
    <path
       class="st2"
       d="m 88.873543,165.89895 c 0,-1.13771 0,-2.30188 0,-3.4925 -0.291042,0 -0.555625,0 -0.846667,0 0,-0.29104 0,-0.55563 0,-0.84667 0.264583,0 0.502708,0 0.79375,0 0.05292,-0.635 0,-1.32291 0.608542,-1.69333 0.529166,-0.3175 1.137708,-0.21167 1.719791,-0.15875 0,0.26458 0,0.50271 0,0.71437 -0.3175,0.10584 -0.687917,0.1323 -0.926042,0.3175 -0.15875,0.1323 -0.105833,0.50271 -0.15875,0.82021 0.370417,0 0.661459,0 1.005417,0 0,0.29104 0,0.52917 0,0.82021 -0.291042,0 -0.608542,0 -0.9525,0 0,1.19063 0,2.32833 0,3.51896 -0.423333,0 -0.820208,0 -1.243541,0 z"
       id="path4560"
       inkscape:connector-curvature="0"
       style="fill:#010101;stroke-width:0.26458332" />
    <path
       class="st2"
       d="m 110.88688,175.74145 c 0,-1.16417 0,-2.30188 0,-3.4925 -0.26459,0 -0.52917,0 -0.82021,0 0,-0.29104 0,-0.52917 0,-0.84667 0.26458,0 0.50271,0 0.76729,0 0.0265,-0.3175 0.0529,-0.60854 0.10583,-0.89958 0.13229,-0.66146 0.55563,-1.00542 1.21709,-1.03188 0.10583,0 0.1852,0 0.29104,0 0.79375,0 0.79375,0 0.71437,0.82021 -1.05833,0.15875 -1.05833,0.15875 -1.00541,1.08479 0.15875,0 0.3175,0.0265 0.47625,0.0265 0.15875,0 0.29104,0 0.47625,0 0,0.29104 0,0.55563 0,0.84667 -0.3175,0 -0.60855,0 -0.9525,0 0,1.19062 0,2.32833 0,3.4925 -0.42334,0 -0.82021,0 -1.27,0 z"
       id="path4562"
       inkscape:connector-curvature="0"
       style="fill:#010101;stroke-width:0.26458332" />
    <path
       class="st2"
       d="m 175.10125,169.5502 c 0.42333,0 0.82021,0 1.21708,0 0,2.06375 0,4.10104 0,6.19125 -0.39687,0 -0.79375,0 -1.21708,0 0,-2.06375 0,-4.1275 0,-6.19125 z"
       id="path4564"
       inkscape:connector-curvature="0"
       style="fill:#010101;stroke-width:0.26458332" />
    <path
       class="st2"
       d="m 107.95,165.92541 c -0.42333,0 -0.82021,0 -1.21708,0 0,-2.06375 0,-4.1275 0,-6.19125 0.42333,0 0.79375,0 1.21708,0 0,2.06375 0,4.10104 0,6.19125 z"
       id="path4566"
       inkscape:connector-curvature="0"
       style="fill:#010101;stroke-width:0.26458332" />
    <path
       class="st2"
       d="m 101.22958,175.74145 c -0.39687,0 -0.79375,0 -1.21708,0 0,-1.45521 0,-2.8575 0,-4.31271 0.37042,0 0.76729,0 1.19063,0 0,0.23813 0,0.44979 0,0.76729 0.42333,-0.60854 0.89958,-0.89958 1.56104,-0.76729 0,0.34396 0,0.68792 0,1.03188 -0.13229,0 -0.21167,0 -0.3175,0 -0.74084,0 -1.13771,0.37041 -1.13771,1.1377 0,0.68792 0,1.4023 -0.0265,2.09021 -0.0265,0 -0.0265,0 -0.0529,0.0529 z"
       id="path4568"
       inkscape:connector-curvature="0"
       style="fill:#010101;stroke-width:0.26458332" />
    <path
       class="st2"
       d="m 119.93563,175.74145 c -0.4498,0 -0.84667,0 -1.24355,0 0,-1.45521 0,-2.88396 0,-4.31271 0.39688,0 0.79375,0 1.21709,0 0,0.23813 0,0.44979 0,0.68792 0.58208,-0.635 0.79375,-0.74084 1.56104,-0.68792 0,0.15875 0,0.34396 0,0.50271 0,0.15875 0,0.3175 0,0.52917 -0.10583,0 -0.18521,0 -0.26458,0 -0.82021,-0.0265 -1.21709,0.37041 -1.24355,1.21708 -0.0264,0.68792 -0.0264,1.34937 -0.0264,2.06375 z"
       id="path4570"
       inkscape:connector-curvature="0"
       style="fill:#010101;stroke-width:0.26458332" />
    <path
       class="st2"
       d="m 171.84687,171.42874 c 0.37042,0 0.74084,0 1.13771,0 0.0265,0.21167 0.0529,0.42333 0.0794,0.74083 0.39687,-0.60854 0.87312,-0.8202 1.50812,-0.71437 0,0.34396 0,0.68792 0,1.00542 -0.0265,0.0264 -0.0529,0.0264 -0.0794,0.0264 -1.00542,-0.0529 -1.40229,0.29105 -1.42875,1.32292 0,0.635 0,1.24354 -0.0265,1.87854 0,0 0,0.0265 -0.0265,0.0529 -0.37042,0 -0.76729,0 -1.21708,0 0.0529,-1.42875 0.0529,-2.8575 0.0529,-4.31271 z"
       id="path4572"
       inkscape:connector-curvature="0"
       style="fill:#010101;stroke-width:0.26458332" />
    <path
       class="st2"
       d="m 154.67542,175.74145 c -0.42334,0 -0.79375,0 -1.24354,0 0,-1.42875 0,-2.8575 0,-4.31271 0.34395,0 0.74083,0 1.1377,0 0.0265,0.21167 0.0265,0.42333 0.0529,0.68792 0.66146,-0.66146 0.82021,-0.71438 1.50812,-0.68792 0,0.34396 0,0.68792 0,1.03188 -0.0529,0 -0.10583,0 -0.15875,0 -0.89958,-0.0265 -1.29645,0.3175 -1.29645,1.21708 0,0.68792 0,1.37583 0,2.06375 z"
       id="path4574"
       inkscape:connector-curvature="0"
       style="fill:#010101;stroke-width:0.26458332" />
    <path
       class="st2"
       d="m 105.67458,165.92541 c -0.42333,0 -0.79375,0 -1.19062,0 0,-1.42875 0,-2.8575 0,-4.31271 0.39687,0 0.79375,0 1.19062,0 0,1.42875 0,2.8575 0,4.31271 z"
       id="path4576"
       inkscape:connector-curvature="0"
       style="fill:#010101;stroke-width:0.26458332" />
    <path
       class="st2"
       d="m 104.43104,160.68666 c 0,-0.3175 0,-0.635 0,-0.9525 0.42334,0 0.84667,0 1.27,0 0,0.3175 0,0.60854 0,0.9525 -0.42333,0 -0.82021,0 -1.27,0 z"
       id="path4578"
       inkscape:connector-curvature="0"
       style="fill:#010101;stroke-width:0.26458332" />
  </g>
  <style
     id="style4485"
     type="text/css">
	.st0{fill:#FDFDFD;}
	.st1{fill:#DF2626;}
	.st2{fill:#010101;}
</style>
</svg>
