<?xml version="1.0" encoding="UTF-8" standalone="no"?>
<svg xmlns="http://www.w3.org/2000/svg" width="158.52725mm" height="56.458584mm" viewBox="0 0 158.52725 56.458584">
  <defs>
    <clipPath id="a" clipPathUnits="userSpaceOnUse">
      <path d="M18 720.72h124.56V780H18Z"/>
    </clipPath>
  </defs>
  <g clip-path="url(#a)" transform="matrix(1.57596 0 0 -1.49665 -39.49626 1156.16074)">
    <path d="M29.41943691 771.92849457h4.3578084l.1960152-.59200128c.10779055-.32558784 2.03773128-6.25555094 4.28876424-13.177697s4.0978116-12.59073648 4.10395536-12.59686746c.00614249-.00613099 1.93993992 5.91839836 4.29735024 13.16561577l4.28618208 13.17676179 4.3653768.0123385c2.4009636.00678577 4.36475352-.00408817 4.36399032-.02416245-.00077465-.02007555-2.81720016-8.24563618-6.25873608-18.2790249l-6.2573496-18.24249757-4.78938528-.01231728-4.78938528-.01231085-6.23371584 18.18235066c-3.42853608 10.0002935-6.24606696 18.23128016-6.26117832 18.29108168l-.02746248.1087008zm37.30326348-11.0180012h7.720086v-6.33051591h-7.93789438v-19.23318252h-7.50228398v25.56369842Zm9.64981176 8.1668519c.1935984.88203302.6180648 1.62958579 1.27884336 2.25221625 1.93864248 1.82671373 5.06380656 1.47086976 6.56514816-.7475206 1.1150352-1.64763399.9249984-3.91348608-.4495248-5.35820333-.5740536-.60338592-1.1535768-.96083146-1.95268536-1.20457853-.3863064-.11783424-.4976064-.12986208-1.2002592-.12986208-.7025256 0-.8139528.01205164-1.2002592.12986208-.7838064.23907744-1.37298408.59862624-1.92468864 1.17465043-.5319504.55533888-.8250192 1.05943402-1.0416408 1.79114477-.1728648.58421856-.2056824 1.49729242-.07493352 2.092291zm4.24150944-8.1668519h3.75114072v-25.56369843h-7.50228017v25.56369842Zm6.88182528-11.7187078c.1762992 2.7444315 1.1425104 5.28219639 2.80595568 7.3694968.4570296.57347713 1.5438264 1.65198202 2.13229176 2.1160251 1.89353736 1.4931888 3.96945408 2.37446928 6.47582832 2.7491397.833796.12465217 3.37344576.12497377 4.210956.00052679 2.47844112-.368232 4.5810444-1.26956103 6.46164552-2.76990864.5505216-.43917696 1.6848912-1.57581427 2.14145016-2.14567018 1.54825296-1.93244937 2.47990392-4.21402128 2.74222848-6.71555279.2568168-2.4496272-.0575351-4.87889712-.8975232-6.93457525-1.1680776-2.85855447-3.51417984-5.36606323-6.28524456-6.7176181-1.1559936-.5640864-2.3414976-.94305985-3.60594192-1.15351489-2.37345024-.3949248-5.05706496-.2334816-7.16347152.430944-3.1127748.98235936-5.84009544 3.23484576-7.45378008 6.15602218-1.1913552 2.15675894-1.7425764 4.83953328-1.56439464 7.61436304Zm7.61599824-1.6188765c.1396656-1.83582788.7623096-3.21030769 1.97443656-4.35859978.7009992-.66411044 1.42893936-1.06450887 2.42508072-1.33395178.4313352-.11667648.5353848-.12535968 1.50402552-.12535968.9710448 0 1.0719144.00845808 1.50866832.12651744 2.19173232.59245152 3.73744128 2.29424938 4.2613272 4.69161658.09338515.42734208.10758703.63586752.10758195 1.57965417-.00000636.93949008-.01427948 1.15091635-.10499088 1.55521901-.6498648 2.89641965-2.68801584 4.7088672-5.4579612 4.85351645-1.72708344.09017664-3.24848448-.47744736-4.40554656-1.64364615-1.072932-1.08141216-1.68383544-2.47554172-1.81277808-4.13686944-.0195977-.25252032-.03874767-.48085632-.04255604-.50742048-.00380836-.02657895.01541664-.34192512.0427125-.70067635zm24.34127057-4.51899457c1.1154168.55752576 2.66672256.55752576 3.7821012 0 1.1993688-.59959104 2.01468264-1.61399462 2.32045872-2.88739555.11884169-.495264.1299984-1.41555456.02326488-1.92207456-.277932-1.31933184-1.29144888-2.54662176-2.52925752-3.0629184-1.1141448-.4643904-2.55485016-.4270848-3.59656728.093264-1.5109452.6679632-2.36313432 2.25435168-2.35861872 3.87836736.00416071 1.49923488.738396 3.03050755 2.35861872 3.90075715z"/>
  </g>
</svg>